<svg xmlns="http://www.w3.org/2000/svg" width="361.645" height="334.645" viewBox="0 0 361.645 334.645">
  <g id="Intersection_1" data-name="Intersection 1" transform="matrix(0.574, -0.819, 0.819, 0.574, -761.175, 1957.213)" fill="#fff">
    <path d="M 2006.500122070313 -103.0668716430664 C 1992.507934570313 -108.8143615722656 1979.402099609375 -116.7882843017578 1967.5458984375 -126.7683486938477 C 1955.744873046875 -136.7020416259766 1945.39990234375 -148.4364624023438 1936.798583984375 -161.6455841064453 C 1928.08349609375 -175.0293426513672 1921.3212890625 -189.6823425292969 1916.69970703125 -205.1975860595703 C 1911.92236328125 -221.2356109619141 1909.5 -237.9914703369141 1909.5 -254.9996948242188 C 1909.5 -272.0079345703125 1911.92236328125 -288.7637634277344 1916.69970703125 -304.8018188476563 C 1921.3212890625 -320.3170471191406 1928.08349609375 -334.9700317382813 1936.798583984375 -348.3538208007813 C 1945.39990234375 -361.5629272460938 1955.744873046875 -373.2973022460938 1967.5458984375 -383.2310485839844 C 1979.402099609375 -393.2111206054688 1992.507934570313 -401.1849975585938 2006.500122070313 -406.9325256347656 C 2020.492309570313 -401.1849975585938 2033.59814453125 -393.2111206054688 2045.454345703125 -383.2310485839844 C 2057.25537109375 -373.2973022460938 2067.600341796875 -361.5629272460938 2076.20166015625 -348.3538208007813 C 2084.916748046875 -334.9700317382813 2091.678955078125 -320.3170471191406 2096.300537109375 -304.8018188476563 C 2101.077880859375 -288.7637634277344 2103.500244140625 -272.0079345703125 2103.500244140625 -254.9996948242188 C 2103.500244140625 -237.9914703369141 2101.077880859375 -221.2356109619141 2096.300537109375 -205.1975860595703 C 2091.678955078125 -189.6823425292969 2084.916748046875 -175.0293426513672 2076.20166015625 -161.6455841064453 C 2067.600341796875 -148.4364624023438 2057.25537109375 -136.7020416259766 2045.454345703125 -126.7683486938477 C 2033.59814453125 -116.7882843017578 2020.492309570313 -108.8143615722656 2006.500122070313 -103.0668716430664 Z" stroke="none"/>
    <path d="M 2006.500122070313 -406.3918151855469 C 1992.627197265625 -400.6699523925781 1979.630859375 -392.7500915527344 1967.867919921875 -382.8485412597656 C 1956.1044921875 -372.9464721679688 1945.792236328125 -361.2489624023438 1937.217529296875 -348.0809631347656 C 1928.52880859375 -334.7374877929688 1921.78662109375 -320.1282348632813 1917.178955078125 -304.6590576171875 C 1912.415283203125 -288.6673889160156 1910 -271.9595336914063 1910 -254.9996948242188 C 1910 -238.0398559570313 1912.415283203125 -221.33203125 1917.178955078125 -205.3403625488281 C 1921.78662109375 -189.8711547851563 1928.52880859375 -175.2619323730469 1937.217529296875 -161.9184265136719 C 1945.792236328125 -148.7504577636719 1956.1044921875 -137.052978515625 1967.867919921875 -127.15087890625 C 1979.630859375 -117.2492980957031 1992.627197265625 -109.3294372558594 2006.500122070313 -103.6075744628906 C 2020.373046875 -109.3294372558594 2033.369384765625 -117.2492980957031 2045.13232421875 -127.15087890625 C 2056.89599609375 -137.052978515625 2067.2080078125 -148.7504577636719 2075.78271484375 -161.9184265136719 C 2084.4716796875 -175.2619323730469 2091.21337890625 -189.8711547851563 2095.8212890625 -205.3403625488281 C 2100.5849609375 -221.33203125 2103.000244140625 -238.0398559570313 2103.000244140625 -254.9996948242188 C 2103.000244140625 -271.9595336914063 2100.5849609375 -288.6673889160156 2095.8212890625 -304.6590576171875 C 2091.21337890625 -320.1282348632813 2084.4716796875 -334.7374877929688 2075.78271484375 -348.0809631347656 C 2067.2080078125 -361.2489624023438 2056.89599609375 -372.9464721679688 2045.13232421875 -382.8485412597656 C 2033.369384765625 -392.7500915527344 2020.373046875 -400.6699523925781 2006.500122070313 -406.3918151855469 M 2006.500122070313 -407.472900390625 C 2063.488037109375 -384.1599731445313 2104.000244140625 -324.6869201660156 2104.000244140625 -254.9996948242188 C 2104.000244140625 -185.3125 2063.488037109375 -125.8394775390625 2006.500122070313 -102.5264892578125 C 1949.51220703125 -125.8394775390625 1909 -185.3125 1909 -254.9996948242188 C 1909 -324.6869201660156 1949.51220703125 -384.1599731445313 2006.500122070313 -407.472900390625 Z" stroke="none" fill="#707070"/>
  </g>
</svg>
